<svg width="68" height="81" viewBox="0 0 68 81" fill="none" xmlns="http://www.w3.org/2000/svg">
<path d="M49.5 28C40.9395 28 34 33.5963 34 40.5C34 47.4037 40.9395 53 49.5 53C58.0605 53 65 58.5965 65 65.5C65 72.4035 58.0605 78 49.5 78C40.9395 78 34 72.4037 34 65.5C34 58.5963 27.0603 53 18.5 53C9.93971 53 3 47.4037 3 40.5C3 33.5963 9.93947 28 18.5 28C27.0605 28 34 22.4037 34 15.5C34 8.59635 40.9395 3 49.5 3C58.0605 3 65 8.59635 65 15.5C65 22.4037 58.0605 28 49.5 28Z" stroke="#F23C3C" stroke-width="5" stroke-linecap="round" stroke-linejoin="round"/>
</svg>
