<svg width="337" height="487" viewBox="0 0 337 487" fill="none" xmlns="http://www.w3.org/2000/svg">
<g clip-path="url(#clip0_208_521)">
<path d="M-74.6073 106.001C-75.21 104.57 -76.2028 101.391 -76.0728 96.1919C-76.0174 94.0627 -75.6691 88.839 -75.2274 82.2266C-74.2687 67.8395 -72.8189 46.0995 -73.1661 37.445L-73.1872 36.9211C-73.6643 24.9688 -74.3842 6.9061 -80.9568 2.41332C-83.0644 0.966504 -86.5494 2.73649 -89.5849 9.94678C-92.1212 15.9709 -95.2565 27.939 -95.791 50.7578C-95.9564 57.9346 -95.9586 77.8378 -95.9586 78.0385C-95.7918 140.594 -88.6054 248.002 -76.8664 319.449C-76.8648 319.449 -76.8648 319.456 -76.8636 319.456C-76.8018 319.844 -71.1023 355.186 -66.923 372.139L-67.4899 367.266C-67.5024 367.154 -67.5076 367.041 -67.5076 366.931C-67.5079 366.709 -67.4841 366.493 -67.44 366.321C-67.396 366.148 -67.3345 366.029 -67.2661 365.985C-67.1977 365.94 -67.1264 365.972 -67.0645 366.075C-67.0027 366.178 -66.9539 366.346 -66.9266 366.55C-64.5666 383.971 -62.0303 398.765 -59.3888 410.514C-58.4669 413.496 -57.097 416.31 -55.4538 418.553C-55.392 418.636 -55.3406 418.782 -55.308 418.969C-55.2754 419.155 -55.2635 419.371 -55.274 419.582C-55.294 420.012 -55.4051 420.351 -55.5428 420.393C-62.8907 422.833 -68.6168 429.412 -70.4836 437.557C-72.8112 442.14 -74.0077 447.042 -74.0284 451.977L-73.9863 453.133L-73.9619 453.606C-73.9608 453.887 -73.993 454.452 -73.993 454.452L-74.0284 455.235C-74.0417 458.5 -73.5613 461.744 -72.5995 464.874C-69.0006 476.587 -59.3827 484.689 -48.6665 485.041C-34.6154 485.479 -23.13 472.835 -23.0634 456.863L-23.105 455.714L-23.13 455.234C-23.13 454.952 -23.0989 454.409 -23.0989 454.409L-23.0634 453.612C-23.0429 448.599 -24.2311 443.563 -26.4994 439.036C-28.2656 430.919 -33.3497 424.389 -40.1891 421.301C-40.2556 421.271 -40.317 421.171 -40.3638 421.018C-40.4105 420.865 -40.44 420.667 -40.4476 420.455C-40.4551 420.243 -40.4404 420.029 -40.4056 419.846C-40.3708 419.663 -40.318 419.523 -40.2553 419.446C-38.4343 417.231 -36.92 414.312 -35.8759 411.005C-33.1382 399.179 -30.4723 384.117 -27.9821 366.347C-27.9684 366.224 -27.9469 366.111 -27.9189 366.015C-27.891 365.919 -27.8573 365.842 -27.8197 365.789C-27.7821 365.735 -27.7416 365.707 -27.7004 365.705C-27.6593 365.703 -27.6185 365.728 -27.5805 365.778C-27.5425 365.828 -27.508 365.902 -27.4793 365.995C-27.4505 366.089 -27.428 366.2 -27.4132 366.322C-27.3984 366.443 -27.3915 366.574 -27.393 366.704C-27.3944 366.835 -27.4043 366.963 -27.4218 367.081C-27.4218 367.081 -27.7812 370.06 -28.1378 373.011C-23.8914 356.27 -18.0497 321.203 -17.9857 320.819C-5.96909 250.008 1.64291 142.954 2.05993 80.3668C2.06048 80.2682 2.08154 74.7962 2.08154 68.5678C2.08154 62.8686 2.06381 56.5327 1.99703 53.0984C1.55313 30.2532 -1.53312 18.1292 -4.04413 11.9827C-7.05086 4.62096 -10.5314 2.67485 -12.6473 4.01071C-19.2282 8.17415 -20.0226 26.1814 -20.5483 38.0993L-20.5727 38.6505C-20.9528 47.2786 -19.5909 69.0662 -18.6896 83.4832C-18.2734 90.1414 -17.9445 95.4003 -17.8979 97.5357C-17.8314 100.687 -18.1598 103.473 -18.8741 105.818C-18.9423 106.041 -19.0401 106.147 -19.1365 106.102C-22.1781 104.674 -33.4004 103.644 -46.4262 103.602C-60.3506 103.56 -72.0999 104.64 -74.3621 106.172C-74.4477 106.23 -74.5363 106.166 -74.6073 106.001ZM-6.40551 29.8438C-2.94657 37.3517 -1.05985 52.2892 -1.05985 72.0417C-1.05985 72.7383 -1.06207 73.4401 -1.06622 74.149C-1.48574 136.944 -9.12073 244.337 -21.174 315.402L-22.517 326.495C-22.5758 326.989 -22.747 327.235 -22.9025 327.059C-23.0574 326.883 -23.1399 326.343 -23.0878 325.846C-16.0852 259.152 -12.938 186.724 -12.8654 169.142C-13.0039 150.539 -19.9791 140.499 -20.0495 140.399L-20.2554 140.468C-20.3001 140.466 -20.3441 140.433 -20.3843 140.371C-20.4245 140.309 -20.4599 140.219 -20.4879 140.109C-20.516 139.998 -20.536 139.869 -20.5465 139.731C-20.557 139.593 -20.5578 139.449 -20.5488 139.31C-20.0246 131.188 -18.2091 125.402 -16.7507 120.756C-15.8103 117.761 -14.999 115.175 -14.7036 112.648C-13.6221 103.403 -12.969 92.8201 -16.8125 65.2541C-17.536 60.0621 -19.0825 46.9114 -17.8317 36.9475C-17.2614 32.4045 -16.1833 29.0565 -14.6266 26.995C-11.9363 23.4454 -8.86332 24.51 -6.40551 29.8438ZM-79.064 25.5033C-77.5129 27.6414 -76.4458 31.0493 -75.8944 35.6328C-74.6863 45.6653 -76.2859 58.706 -77.0305 63.8496C-80.9826 91.2289 -80.37 101.84 -79.3237 111.134C-79.0374 113.68 -78.2322 116.308 -77.3001 119.352C-75.9276 123.828 -74.3734 128.904 -73.7275 135.941C-73.7143 136.086 -73.7119 136.239 -73.7207 136.388C-73.7295 136.537 -73.7492 136.676 -73.7781 136.797C-73.807 136.917 -73.8444 137.013 -73.8873 137.079C-73.9301 137.145 -73.9773 137.177 -74.0248 137.175C-74.0248 137.175 -75.019 137.116 -75.1532 137.106C-75.5092 137.657 -81.4537 147.17 -81.4537 165.965C-81.4537 166.411 -81.4503 166.862 -81.4437 167.319C-81.1519 186.448 -78.2729 259.714 -71.5776 326.521C-71.5515 326.763 -71.5567 327.028 -71.5921 327.257C-71.6275 327.487 -71.6901 327.662 -71.7661 327.745C-71.8422 327.828 -71.9255 327.811 -71.9977 327.699C-72.0699 327.586 -72.1251 327.387 -72.1511 327.146L-73.661 314.149C-85.4255 242.58 -92.6391 134.779 -92.8078 71.973C-92.8646 51.1752 -90.9075 35.5385 -87.2995 27.9434C-84.8212 22.7242 -81.7421 21.8128 -79.064 25.5033Z" fill="white"/>
<path d="M260.36 454.429C260.36 454.429 260.251 453.865 260.255 453.583L260.338 453.11L260.481 451.955C260.41 447.02 256.348 442.119 248.445 437.536C247.721 436.605 246.803 435.695 245.748 434.807C229.783 427.298 203.621 422.538 174.091 422.821C143.103 423.118 115.973 428.892 100.529 437.345C100.017 437.875 99.5402 438.433 99.1001 439.016C91.3975 443.543 87.3632 448.577 87.4338 453.59L87.5542 454.387C87.5542 454.387 87.6596 454.929 87.6596 455.212L87.5749 455.692L87.4554 456.651C92.1474 471.71 129.601 483.14 174.938 482.723C216.15 482.329 250.55 472.253 259.681 459.054C260.178 457.779 260.498 456.495 260.48 455.212L260.36 454.429Z" fill="#CBD7EE"/>
<path d="M252.807 327.717C252.553 327.635 252.343 327.464 252.222 327.239C252.101 327.014 252.079 326.755 252.16 326.515C257.649 310.383 262.379 293.878 266.414 277.844C272.34 250.41 277.508 217.353 280.981 177.895L220.87 199.912C219.631 249.634 239.4 384.726 177.553 395.048C170.679 396.05 209.671 402.586 224.584 386.016C226.66 383.704 229.036 380.495 231.609 376.391C233.253 373.132 234.84 369.847 236.368 366.539C236.553 366.133 237.013 365.964 237.464 366.027C242.41 356.39 247.775 343.741 253.071 327.703C252.981 327.699 252.899 327.748 252.807 327.717Z" fill="#FBFDFF"/>
<path d="M174.155 424.801C129.049 425.21 92.6592 437.478 92.8766 452.222C93.093 466.951 129.836 478.563 174.943 478.155C220.046 477.752 256.438 465.478 256.225 450.748C256.005 435.984 216.166 424.422 174.155 424.801Z" fill="white"/>
<path d="M253.225 443.705C255.84 446.138 256.225 450.748 256.225 450.748C256.439 465.478 220.047 477.752 174.943 478.155C132.086 478.542 96.7857 468.072 93.1786 454.4L93.1748 454.583C93.1748 454.583 93.7628 450.395 96.6559 453.878C99.5546 457.354 108.258 466.055 117.531 466.745C126.816 467.444 120.718 464.483 116.077 463.262C111.447 462.05 98.9779 456.141 97.2411 446.052L96.8497 444.472C97.0605 458.482 132.022 469.545 174.954 469.157C217.876 468.77 252.503 457.086 252.299 443.061L253.225 443.705ZM150.876 476.314C181.272 479.121 192.339 475.623 198.136 473.53C203.941 471.442 229.742 465.358 236.703 462.573C249.42 457.496 253.813 452.314 253.813 449.713C253.813 447.09 252.653 447.795 252.653 447.795C252.653 447.795 250.05 451.968 248.886 453.005C238.975 461.924 221.342 465.88 213.8 467.275C206.254 468.665 193.786 470.216 193.786 470.216C193.786 470.216 192.924 472.656 180.447 474.059C167.984 475.447 150.084 472.253 143.629 473.713C141.306 474.227 143.337 475.623 150.876 476.314Z" fill="#779DD2"/>
<path d="M197.715 420.374C197.488 420.353 197.275 420.262 197.11 420.115C196.945 419.968 196.837 419.774 196.802 419.563C196.787 419.457 196.84 419.372 196.86 419.274C189.329 418.599 181.765 418.3 174.201 418.378C164.392 418.463 155.051 419.147 146.422 420.275C146.428 420.331 146.469 420.38 146.462 420.437C146.436 420.65 146.336 420.848 146.177 421.001C146.018 421.154 145.809 421.253 145.583 421.284C122.36 424.371 105.098 430.9 99.1012 439.016C98.7747 439.207 98.4934 439.404 98.181 439.594C97.3145 441.174 96.8253 442.795 96.8498 444.473C97.0605 458.483 132.022 469.546 174.954 469.158C217.876 468.771 252.503 457.087 252.299 443.062C252.28 441.786 251.877 440.546 251.3 439.318C250.371 438.694 249.418 438.099 248.445 437.535C242.106 429.392 222.664 422.813 197.715 420.374Z" fill="#D6DFF1"/>
<path d="M124.49 439.439C113.343 441.272 106.222 441.187 106.806 439.27C107.376 437.352 111.447 433.53 105.067 435.441C98.6861 437.352 96.8496 444.473 96.8496 444.473C97.0378 457.172 125.75 467.438 163.07 468.967C163.07 468.967 177.554 468.833 181.031 466.922C184.564 464.977 176.977 466.224 171.169 462.051C165.376 457.884 171.994 441.153 169.725 433.707C169.352 432.46 159.288 439.101 159.577 444.143C159.87 449.184 142.757 462.411 130.87 460.493C112.335 457.51 130.298 443.098 137.249 437.014C144.208 430.922 140.928 430.133 140.439 431.098C138.409 435.103 127.681 438.917 124.49 439.439ZM217.274 433.706C208.61 430.731 215.255 431.274 223.372 434.581C231.49 437.888 233.803 433.882 228.295 428.672V428.136C228.295 428.136 221.341 425.012 227.136 426.409C232.937 427.79 242.798 431.966 246.852 435.103C250.912 438.219 251.208 445.361 250.05 445.706C250.05 445.706 248.886 450.917 240.478 455.268C232.069 459.624 227.715 461.183 230.329 459.448C232.936 457.7 240.56 449.781 235.544 444.832C231.49 440.835 219.308 434.398 217.274 433.706Z" fill="white"/>
<path d="M195.903 431.38C197.946 440.44 205.19 450.297 209.247 454.176C213.304 458.067 203.155 446.413 205.476 443.296C207.796 440.188 212.731 435.005 215.337 436.041C217.944 437.079 210.402 430.331 206.635 428.003C202.868 425.67 203.155 427.743 201.418 428.779C199.682 429.822 195.903 431.38 195.903 431.38Z" fill="white"/>
<path d="M171.749 382.602C148.369 382.977 129.499 394.322 129.606 407.929C129.61 408.43 129.693 408.923 129.749 409.424C130.145 409.939 130.54 410.481 130.938 410.989C134.483 414.295 139.624 417.214 145.808 419.428C145.964 419.408 146.122 419.421 146.272 419.467C146.421 419.513 146.557 419.59 146.67 419.692C146.783 419.795 146.869 419.921 146.922 420.059C146.974 420.198 146.993 420.346 146.975 420.492C146.957 420.638 146.904 420.779 146.819 420.903C146.735 421.026 146.621 421.131 146.486 421.207C146.352 421.284 146.201 421.33 146.044 421.343C145.888 421.357 145.73 421.336 145.583 421.284C143.073 421.622 140.571 422.01 138.079 422.447C145.845 428.376 158.212 432.12 172.159 431.894C186.09 431.668 198.377 427.544 206.048 421.381C203.347 420.994 200.57 420.656 197.716 420.373C197.489 420.352 197.276 420.261 197.111 420.114C196.946 419.967 196.837 419.773 196.803 419.562C196.767 419.352 196.808 419.136 196.919 418.949C197.03 418.763 197.204 418.616 197.414 418.533C202.994 416.29 207.644 413.477 210.775 410.495C211.959 408.942 213.113 407.37 214.237 405.778C213.405 392.544 194.683 382.236 171.749 382.602Z" fill="#9FB7DF"/>
<path d="M252.807 327.717C252.553 327.635 252.343 327.464 252.222 327.239C252.101 327.014 252.079 326.755 252.16 326.515C258.063 309.17 263.084 291.395 267.314 274.237C272.905 247.512 277.779 215.608 281.132 177.828L219.663 200.306C218.4 250.858 239.198 387.476 176.206 395.428C169.128 396.325 209.446 402.902 224.665 386.051C226.586 383.922 228.745 381.074 231.062 377.491C232.902 373.871 234.672 370.219 236.37 366.539C236.577 366.08 237.127 365.872 237.628 366.024C242.589 356.375 247.95 343.726 253.234 327.693C253.091 327.706 252.954 327.762 252.807 327.717Z" fill="white"/>
<path d="M252.807 327.717C252.553 327.635 252.343 327.464 252.222 327.239C252.101 327.015 252.079 326.755 252.16 326.515C257.223 311.635 261.642 296.437 265.466 281.588C271.742 253.456 277.231 219.193 280.831 177.97L222.088 199.517C220.867 248.421 239.605 381.962 178.896 394.675C172.224 395.782 209.905 402.276 224.491 385.968C226.744 383.45 229.373 379.861 232.247 375.124C233.665 372.281 235.039 369.419 236.369 366.54C236.532 366.184 236.904 366.035 237.291 366.028C242.222 356.419 247.598 343.755 252.906 327.714C252.871 327.706 252.841 327.727 252.807 327.717Z" fill="#F7F8FC"/>
<path d="M252.16 326.514C256.783 312.934 260.858 299.094 264.445 285.49C271.105 256.64 276.947 221.143 280.681 178.026L223.294 199.107C222.103 247.202 239.801 379.211 180.238 394.292C173.773 395.505 210.139 401.964 224.405 385.931C226.887 383.139 229.871 378.957 233.155 373.31C234.254 371.064 235.326 368.807 236.369 366.538C236.507 366.234 236.802 366.083 237.127 366.026C242.046 356.409 247.432 343.746 252.759 327.677C252.273 327.488 251.998 326.99 252.16 326.514Z" fill="#F5F7FC"/>
<path d="M252.16 326.514C256.335 314.253 260.067 301.773 263.39 289.455C270.445 259.933 276.66 223.147 280.53 178.107L224.5 198.717C223.339 245.977 239.998 376.447 181.574 393.926C175.314 395.237 210.368 401.647 224.323 385.888C226.997 382.87 230.304 378.139 233.974 371.599C234.787 369.918 235.586 368.231 236.37 366.537C236.487 366.287 236.705 366.117 236.961 366.026C241.878 356.401 247.283 343.703 252.631 327.571C252.249 327.343 252.016 326.937 252.16 326.514Z" fill="#F1F3FA"/>
<path d="M252.16 326.514C255.753 315.956 259.02 305.235 261.985 294.596C269.57 264.24 276.317 225.845 280.379 178.172L225.712 198.314C224.582 244.751 240.199 373.697 182.912 393.545C176.865 394.962 210.6 401.329 224.228 385.853C230.895 378.28 241.802 359.726 252.507 327.473C252.216 327.227 252.036 326.881 252.16 326.514Z" fill="#EFF2FA"/>
<path d="M252.16 326.514C255.2 317.578 258.003 308.527 260.591 299.503C268.701 268.43 275.978 228.472 280.221 178.246L226.925 197.921C225.806 243.536 240.396 370.944 184.253 393.171C178.41 394.687 210.829 401.011 224.145 385.817C230.67 378.357 241.616 359.771 252.383 327.366C252.174 327.128 252.05 326.832 252.16 326.514Z" fill="#EFF2FA"/>
<path d="M252.16 326.514C254.597 319.328 256.889 312.1 259.035 304.833C267.725 273.056 275.629 231.396 280.07 178.311L228.13 197.522C227.045 242.314 240.599 368.184 185.604 392.79C179.957 394.426 211.059 400.702 224.047 385.775C230.44 378.435 241.432 359.824 252.257 327.269C252.122 327.043 252.069 326.775 252.16 326.514Z" fill="#EAEEF8"/>
<path d="M252.16 326.514C253.794 321.699 255.361 316.864 256.861 312.011C266.358 279.418 275.18 235.509 279.919 178.385L229.339 197.128C228.281 241.095 240.795 365.427 186.942 392.41C181.502 394.152 211.284 400.391 223.972 385.732C230.228 378.491 241.292 359.801 252.201 326.972C252.167 326.821 252.106 326.67 252.16 326.514Z" fill="#EAEEF8"/>
<path d="M279.768 178.458C268.971 309.67 236.236 371.311 223.873 385.691C211.517 400.068 183.046 393.884 188.278 392.03C240.998 362.677 229.517 239.872 230.541 196.734L279.768 178.458Z" fill="#E7EBF6"/>
<path d="M279.622 178.522C268.912 309.811 235.838 371.548 223.795 385.656C211.743 399.771 184.59 393.609 189.62 391.655C241.201 359.92 230.752 238.653 231.753 196.33L279.622 178.522Z" fill="#E5EAF6"/>
<path d="M279.467 178.591C268.851 309.952 235.424 371.787 223.707 385.614C211.976 399.447 186.143 393.341 190.961 391.282C241.389 357.163 231.986 237.437 232.962 195.93L279.467 178.591Z" fill="#E3E9F6"/>
<path d="M279.309 178.664C268.783 310.1 235.025 372.013 223.617 385.571C212.204 399.136 187.687 393.066 192.31 390.909C241.594 354.408 233.219 236.214 234.172 195.532L279.309 178.664Z" fill="#E0E6F4"/>
<path d="M279.158 178.737C268.719 310.238 234.613 372.252 223.523 385.536C212.436 398.819 189.231 392.798 193.647 390.528C241.793 351.65 234.451 234.993 235.376 195.137L279.158 178.737Z" fill="#DEE5F4"/>
<path d="M279.012 178.805C268.66 310.39 234.207 372.475 223.44 385.494C212.671 398.51 190.78 392.531 194.992 390.147C241.993 348.897 235.696 233.783 236.596 194.742L279.012 178.805Z" fill="#DBE2F3"/>
<path d="M278.857 178.877C268.599 310.527 233.803 372.718 223.35 385.459C212.904 398.193 192.332 392.249 196.329 389.768C242.192 346.141 236.922 232.556 237.796 194.347L278.857 178.877Z" fill="#D9E2F3"/>
<path d="M278.706 178.942C268.534 310.665 233.404 372.951 223.262 385.423C213.122 397.882 193.883 391.98 197.669 389.393C242.391 343.387 238.157 231.332 239.008 193.947L278.706 178.942Z" fill="#D6DFF1"/>
<path d="M278.396 179.086C268.407 310.954 232.589 373.423 223.089 385.339C213.582 397.254 196.973 391.438 200.356 388.639C242.791 337.866 240.629 228.894 241.42 193.153L278.396 179.086Z" fill="#D2DDF1"/>
<path d="M278.555 179.01C268.475 310.816 233 373.183 223.18 385.374C213.356 397.572 195.432 391.713 199.018 389.019C242.595 340.631 239.4 230.118 240.218 193.553L278.555 179.01Z" fill="#D4DEF1"/>
<path d="M278.25 179.162C268.347 311.098 232.183 373.657 222.999 385.297C213.814 396.944 198.517 391.177 201.693 388.265C242.983 335.116 241.869 227.674 242.629 192.75L278.25 179.162Z" fill="#CFDAEF"/>
<path d="M277.937 179.294C268.226 311.384 231.37 374.122 222.83 385.212C214.271 396.303 201.61 390.627 204.375 387.511C243.379 329.61 244.336 225.233 245.051 191.959L277.937 179.294Z" fill="#CBD7EE"/>
<path d="M278.095 179.224C268.286 311.242 231.781 373.895 222.909 385.261C214.049 396.62 200.062 390.909 203.034 387.884C243.187 332.353 243.108 226.456 243.843 192.354L278.095 179.224Z" fill="#CDD9EF"/>
<path d="M277.794 179.366C268.16 311.534 230.963 374.361 222.733 385.176C214.505 395.992 203.149 390.358 205.717 387.137C243.583 326.846 245.575 224.019 246.257 191.564L277.794 179.366Z" fill="#C9D6EE"/>
<path d="M277.64 179.444C268.098 311.666 230.564 374.593 222.654 385.141C214.735 395.675 204.696 390.091 207.058 386.763C243.782 324.096 246.804 222.792 247.474 191.162L277.64 179.444Z" fill="#C6D3EC"/>
<path d="M277.492 179.512C268.029 311.813 230.149 374.826 222.561 385.098C214.963 395.357 206.243 389.815 208.405 386.382C243.98 321.339 248.043 221.568 248.674 190.766L277.492 179.512Z" fill="#C4D2EC"/>
<path d="M277.334 179.576C267.97 311.961 229.742 375.058 222.479 385.056C215.194 395.047 207.795 389.541 209.739 386.008C244.18 318.578 249.276 220.35 249.895 190.374L277.334 179.576Z" fill="#C1D0EA"/>
<path d="M277.184 179.639C267.91 312.103 229.342 375.291 222.381 385.014C215.423 394.737 209.34 389.273 211.072 385.627C244.373 315.831 250.505 219.135 251.085 189.975L277.184 179.639Z" fill="#BFCFEA"/>
<path d="M241.468 193.759C232.183 326.212 194.121 388.822 187.162 398.552C180.198 408.267 175.059 403.149 176.808 399.511C210.1 329.715 216.232 233.017 216.824 203.856L241.468 193.759Z" fill="#BBCBE9"/>
<path d="M241.231 193.759C231.949 326.212 194.094 388.583 187.137 398.305C180.179 408.028 175.436 403.05 177.176 399.412C210.485 329.616 216.61 232.921 217.19 203.752L241.231 193.759Z" fill="#C1D0EA"/>
<path d="M240.998 193.759C231.716 326.212 194.076 388.335 187.117 398.058C180.16 407.781 175.812 402.952 177.553 399.306C210.85 329.522 216.986 232.821 217.558 203.654L240.998 193.759Z" fill="#C6D5ED"/>
<path d="M240.765 193.759C231.49 326.212 194.053 388.089 187.099 397.812C180.138 407.527 176.182 402.86 177.927 399.215C211.231 329.42 217.356 232.721 217.944 203.556L240.765 193.759Z" fill="#CDD9EF"/>
<path d="M240.523 193.759C231.249 326.212 194.031 387.842 187.066 397.571C180.111 407.287 176.563 402.761 178.306 399.109C211.607 329.32 217.736 232.622 218.315 203.463L240.523 193.759Z" fill="#D4DEF1"/>
<path d="M240.298 193.759C231.011 326.212 194 387.602 187.043 397.318C180.089 407.048 176.944 402.661 178.676 399.017C211.984 329.225 218.109 232.525 218.69 203.358L240.298 193.759Z" fill="#DBE2F3"/>
<path d="M240.061 193.759C230.781 326.212 193.981 387.355 187.024 397.078C180.069 406.794 177.313 402.564 179.056 398.918C212.36 329.126 218.486 232.423 219.065 203.26L240.061 193.759Z" fill="#E0E6F4"/>
<path d="M239.822 193.759C230.541 326.212 193.963 387.109 187.008 396.832C180.048 406.548 177.682 402.472 179.425 398.82C212.733 329.032 218.855 232.336 219.443 203.168L239.822 193.759Z" fill="#E7EBF6"/>
<path d="M239.589 193.759C230.315 326.212 193.933 386.861 186.979 396.584C180.021 406.3 178.059 402.366 179.799 398.721C213.106 328.929 219.232 232.233 219.819 203.065L239.589 193.759Z" fill="#EFF2FA"/>
<path d="M239.359 193.759C230.082 326.212 193.914 386.615 186.956 396.338C179.998 406.054 178.435 402.267 180.176 398.63C213.48 328.834 219.609 232.13 220.189 202.971L239.359 193.759Z" fill="#F7F8FC"/>
<path d="M168.949 245.074C181.309 245.074 191.352 253.762 191.721 264.591C191.729 264.387 191.755 264.188 191.755 263.984C191.755 252.871 181.543 243.86 168.949 243.86C156.341 243.86 146.126 252.871 146.126 263.984C146.126 264.188 146.154 264.387 146.16 264.591C146.53 253.762 156.572 245.074 168.949 245.074Z" fill="#6493CD"/>
<path d="M168.949 277.127C160.579 277.127 153.796 271.293 153.429 263.988C153.417 264.193 153.359 264.386 153.359 264.594C153.359 272.187 160.343 278.346 168.949 278.346C177.546 278.346 184.522 272.187 184.522 264.594C184.522 264.386 184.463 264.193 184.457 263.988C184.087 271.293 177.31 277.127 168.949 277.127Z" fill="#6493CD"/>
<path d="M180.545 272.192L177.927 272.496L177.354 270.983L179.091 268.543L178.79 265.508L175.03 271.275L170.688 270.37L172.134 272.192L170.969 273.712L166.333 270.37L163.141 274.015L157.914 270.984L158.795 267.931L161.977 267.631L162.853 265.815L161.113 262.78L159.662 264.292L157.633 263.683L161.692 258.218H163.141C163.435 258.218 164.013 264.596 164.013 264.596L166.333 261.863C166.333 261.863 172.424 261.563 172.424 261.863C172.424 262.17 174.157 259.133 174.157 259.133L172.134 255.485L171.553 260.647L169.229 260.954L166.334 257.001L169.809 251.834L170.613 250.995C170.059 250.942 169.521 250.851 168.95 250.851C160.58 250.851 153.797 256.689 153.43 263.99C153.797 271.295 160.58 277.129 168.95 277.129C174.269 277.129 178.926 274.757 181.724 271.157C181.065 271.843 180.545 272.192 180.545 272.192Z" fill="#BFCFEA"/>
<path d="M164.739 265.054L167.06 262.317C167.06 262.317 173.151 262.016 173.151 262.317C173.151 262.631 174.884 259.583 174.884 259.583L172.854 255.947L172.774 256.638L174.157 259.132C174.157 259.132 172.424 262.169 172.424 261.863C172.424 261.563 166.333 261.863 166.333 261.863L164.626 263.876C164.694 264.562 164.739 265.054 164.739 265.054ZM162.418 258.672H163.299C163.241 258.408 163.188 258.216 163.141 258.216H161.692L157.633 263.681L158.502 263.943L162.418 258.672Z" fill="#6493CD"/>
<path d="M169.589 260.907L167.06 257.453L170.545 252.292L171.609 251.171C171.273 251.12 170.955 251.029 170.611 250.995L169.807 251.834L166.332 257.001L169.227 260.954L169.589 260.907ZM167.06 270.828L167.024 270.87L170.968 273.712L171.005 273.666L167.06 270.828ZM159.524 268.399L162.708 268.092L163.586 266.266L161.837 263.231L161.544 263.536L162.852 265.815L161.976 267.63L158.794 267.93L157.914 270.983L158.658 271.413L159.524 268.399ZM178.073 271.435L179.814 269.002L179.528 265.97L178.925 266.887L179.091 268.543L177.354 270.983L177.927 272.496L178.458 272.435L178.073 271.435Z" fill="#6493CD"/>
<path d="M93.9275 193.072C89.7483 212.979 98.3616 235.931 108.147 250.953C111.127 255.537 115.811 257.647 120.342 259.688C121.684 260.293 123.047 260.908 124.384 261.615C124.012 258.38 123.651 255.18 123.3 252.029C119.819 250.453 117.075 249.101 115.54 246.739C108.036 235.218 97.8094 212.004 102.852 192.783C99.0099 192.971 95.4723 193.353 93.9275 193.072ZM131.971 316.852C125.555 347.362 128.178 368.018 139.969 379.945C142.949 382.954 146.497 385.344 150.598 387.111C148.73 382.815 146.986 378.226 145.355 373.4C139.725 366.992 137.023 357.13 137.258 343.933C135.283 335.181 133.538 326.084 131.971 316.852Z" fill="white"/>
<path d="M89.6551 192.455C84.1569 214.443 95.1261 240.86 103.269 254.057C106 258.402 110.234 260.716 114.328 262.957C118.283 265.122 122.441 267.399 125.6 271.929C125.077 267.604 124.577 263.325 124.097 259.114C122.267 257.919 120.433 256.914 118.697 255.965C115.133 254.012 112.317 252.472 110.747 249.976C103.122 237.621 92.6658 212.684 98.4068 193.052C96.0698 193.195 94.2257 193.261 93.4749 192.947C92.9057 192.709 91.5406 192.58 89.6551 192.455ZM130.197 305.863C129.764 309.951 129.116 314.462 128.217 319.456C122.674 351.692 126.042 372.974 138.508 384.549C142.457 388.213 147.299 390.809 153.001 392.333C151.359 388.966 149.806 385.384 148.334 381.614C146.992 380.795 145.742 379.851 144.604 378.795C135.959 370.768 132.745 355.515 135.011 333.365C133.214 324.389 131.625 315.153 130.197 305.863Z" fill="#EFF2FA"/>
<path d="M87.5693 192.327C82.5603 214.339 93.2736 241.228 101.265 254.867C103.748 258.972 107.553 261.463 111.231 263.873C120.818 270.152 132.748 277.963 126.768 322.376C122.853 354.897 127.158 375.955 139.922 386.798C143.816 390.105 148.376 392.387 153.662 393.653C151.988 390.33 150.405 386.784 148.905 383.045C147.782 382.385 146.723 381.633 145.741 380.797C136.282 372.766 132.536 356.073 134.571 331.129C130.252 309.043 127.154 285.496 124.608 263.553C121.814 260.916 118.881 258.994 116.194 257.234C112.91 255.083 110.316 253.386 108.828 250.923C101.868 239.043 91.2179 213.02 96.2372 193.159C94.953 193.197 93.9745 193.155 93.4749 192.947C92.7119 192.629 90.5273 192.504 87.5693 192.327Z" fill="#E3E9F6"/>
<path d="M85.5511 192.203C81.0953 214.438 91.9639 242.532 99.2497 255.671C101.497 259.537 104.739 262.048 108.17 264.706C117.544 271.97 129.211 281.01 125.323 325.309C123.09 358.116 128.337 378.929 141.355 389.012C145.1 391.912 149.398 393.873 154.295 394.906C152.605 391.655 151.007 388.177 149.493 384.506C148.574 383.992 147.699 383.412 146.875 382.772C136.474 374.72 132.099 356.097 133.858 327.413C130.311 308.566 127.616 288.795 125.363 269.961C121.673 264.656 117.431 261.366 113.69 258.466C110.68 256.134 108.302 254.293 106.893 251.87C99.022 237.673 90.1198 211.858 94.1776 193.11C93.8879 193.074 93.6508 193.022 93.4748 192.948C92.5472 192.56 89.5167 192.458 85.5511 192.203Z" fill="#D6DFF1"/>
<path d="M83.5284 192.064C79.5477 214.326 90.1246 242.897 97.2468 256.471C99.263 260.1 102.136 262.719 105.179 265.488C113.802 273.344 125.613 284.104 123.888 328.255C123.398 361.33 129.59 381.883 142.81 391.161C146.395 393.681 150.434 395.346 154.965 396.16C153.26 392.983 151.646 389.578 150.116 385.977C149.383 385.588 148.678 385.156 148.005 384.682C137.305 377.173 132.101 358.253 132.54 328.46C132.64 325.91 132.694 323.468 132.71 321.117C130.344 307.736 128.378 293.998 126.669 280.553C122.287 269.766 116.269 264.286 111.215 259.682C108.469 257.18 106.299 255.205 104.969 252.814C97.2138 238.036 88.449 211.564 92.1945 192.675C90.4097 192.447 87.2588 192.343 83.5284 192.064Z" fill="#CBD7EE"/>
<path d="M81.532 191.901C78.0236 214.168 88.2956 243.251 95.239 257.283C97.0379 260.68 99.5659 263.371 102.24 266.224C110.561 275.087 121.956 287.231 122.453 331.196C123.757 364.526 130.884 384.789 144.249 393.25C147.667 395.416 151.452 396.805 155.641 397.417C153.925 394.323 152.297 391.002 150.756 387.482C150.188 387.196 149.636 386.883 149.101 386.545C138.335 379.728 132.281 361.043 131.106 331.007C130.577 284.14 117.437 270.141 108.743 260.878C106.352 258.33 104.288 256.13 103.04 253.78C97.7294 243.047 86.4507 213.549 90.1585 192.491C87.9504 192.334 84.9067 192.201 81.532 191.901Z" fill="#BFCFEA"/>
<path d="M79.5119 191.703C75.4842 219.537 92.4108 256.312 93.2378 258.085C94.8306 261.252 96.9334 263.869 99.3692 266.897C106.884 276.251 118.242 290.383 121.033 334.158C124.182 367.706 132.243 387.666 145.684 395.288C148.935 397.132 152.487 398.265 156.371 398.69C154.641 395.684 153.002 392.451 151.447 389.017C151.011 388.814 150.585 388.594 150.169 388.358C139.407 382.251 132.507 363.817 129.665 333.56C126.727 287.465 114.425 272.158 106.286 262.031C104.137 259.359 102.282 257.049 101.118 254.739C93.7186 238.869 85.3658 211.446 88.1958 192.367C85.7647 192.219 82.7371 192.05 79.5119 191.703Z" fill="#B4C7E7"/>
<path d="M77.5954 191.476C74.1454 219.298 90.4331 257.055 91.2357 258.893C91.2883 259.006 96.5561 267.538 96.5561 267.538C103.687 277.906 114.464 293.572 119.625 337.118C124.732 371.3 133.454 390.365 147.088 397.231C150.397 398.898 153.78 399.727 157.118 399.976C155.372 397.053 153.718 393.896 152.147 390.54C151.823 390.402 151.504 390.254 151.19 390.096C140.492 384.709 132.762 366.547 128.213 336.112C122.844 290.786 111.403 274.157 103.833 263.154L99.1942 255.711C92.9536 241.422 83.5829 212.502 86.1947 192.242C83.6516 192.086 80.6757 191.872 77.5954 191.476Z" fill="#A9BEE3"/>
<path d="M75.6536 191.203C72.6805 218.195 87.2879 254.936 89.2402 259.69C89.2853 259.795 93.8183 268.152 93.8183 268.152C100.516 279.568 110.639 296.817 118.226 340.079C125.278 374.381 134.873 393.101 148.443 399.109C151.583 400.5 154.763 401.13 157.885 401.23C156.133 398.403 154.467 395.352 152.887 392.095C152.637 391.999 152.39 391.897 152.145 391.789C141.581 387.108 133.036 369.234 126.748 338.662C118.939 294.133 107.964 275.431 101.405 264.252L97.274 256.678C90.7615 240.811 82.0221 212.161 84.2274 192.113C81.5978 191.929 78.6417 191.662 75.6536 191.203Z" fill="#9FB7DF"/>
<path d="M73.755 190.885C71.2768 216.874 84.1794 252.494 87.2447 260.497C87.2842 260.599 91.1266 268.713 91.1266 268.713C96.9673 280.434 106.741 300.061 116.852 343.052C126.002 377.872 136.147 395.697 149.772 400.928C152.614 402.022 155.664 402.563 158.737 402.516C158.609 402.366 158.492 402.207 158.386 402.042C156.732 399.443 155.162 396.631 153.659 393.649C153.457 393.582 153.257 393.51 153.058 393.434C142.539 389.393 133.452 372.313 125.28 341.215C114.99 297.445 104.962 277.315 98.9712 265.289L95.3528 257.664C87.6426 237.527 80.6485 210.614 82.3184 191.969C79.6164 191.743 76.6706 191.416 73.755 190.885Z" fill="#94B1DC"/>
<path d="M71.8282 190.502C69.7857 214.274 79.9909 246.578 85.2502 261.299C85.2822 261.388 88.4989 269.242 88.4989 269.242C93.8485 281.997 102.799 303.336 115.471 346.028C126.652 380.833 137.613 398.285 151.043 402.677C154.118 403.685 157.153 403.952 160.099 403.706C159.349 403.204 158.768 402.642 158.387 402.042C156.976 399.813 155.661 397.53 154.448 395.2C154.265 395.148 154.083 395.093 153.902 395.035C143.636 391.672 133.784 374.905 123.787 343.776C111.019 300.766 101.967 279.185 96.5571 266.285L93.427 258.645C85.6585 236.885 79.115 210.191 80.4284 191.798C77.6492 191.522 74.6949 191.124 71.8282 190.502Z" fill="#8AAAD9"/>
<path d="M69.9474 190.055C68.3706 210.95 75.7929 239.534 83.2584 262.108L85.7102 269.129L114.123 349C127.481 384.176 138.872 400.723 152.234 404.377C155.645 405.31 158.945 405.334 162.112 404.746C160.364 404.046 159.059 403.103 158.385 402.043C157.29 400.311 156.255 398.546 155.282 396.751C155.075 396.706 154.869 396.655 154.664 396.599C144.694 393.878 134.107 377.436 122.299 346.342L93.9397 266.619L91.5039 259.645C81.9647 230.809 77.5325 207.376 78.4893 191.587C75.6706 191.254 72.737 190.775 69.9474 190.055Z" fill="#81A3D5"/>
<path d="M68.0299 189.512C66.5453 211.018 74.3684 240.306 81.1132 262.403L81.2656 262.906C81.2788 262.945 83.3552 270.038 83.3552 270.038C87.3039 283.928 94.6537 309.777 112.777 351.971C128.172 386.983 140.314 403.142 153.385 406.027C157.227 406.877 160.893 406.532 164.368 405.447C161.485 404.771 159.324 403.518 158.386 402.043C157.605 400.807 156.855 399.554 156.137 398.285C155.882 398.246 155.627 398.199 155.375 398.144C145.736 396.015 134.423 379.911 120.794 348.919C102.882 307.215 95.619 281.676 91.7193 267.959L89.4358 260.178C80.1884 229.881 75.8991 206.838 76.6019 191.344C73.7135 190.936 70.7668 190.36 68.0299 189.512Z" fill="#779DD2"/>
<path d="M68.9144 189.774C68.4016 213.112 77.0554 243.536 81.3315 258.573L82.1369 261.413L83.7514 268.179C86.8721 282.015 93.3648 310.811 114.298 352.632C131.93 387.871 144.393 403.143 157.32 405.35C159.603 405.74 161.798 405.703 163.911 405.334C161.257 404.636 159.273 403.439 158.386 402.043C157.122 400.044 155.937 398.001 154.835 395.92C146.152 391.239 135.62 376.142 122.138 349.199C101.629 308.223 95.509 281.082 92.2227 266.504L90.5104 259.357C90.5085 259.355 89.6975 256.49 89.6975 256.49C85.9501 243.311 77.4704 213.498 77.5136 191.468C74.6431 191.095 71.688 190.563 68.9144 189.774Z" fill="#6E98D0"/>
<path d="M60.6284 185.982C60.89 213.522 70.5552 251.159 75.1803 267.634L76.0995 271.018C79.4771 283.604 87.3792 313.082 110.055 358.391C124.361 386.967 135.722 403.917 145.813 411.73C146.424 412.209 147.334 412.124 147.842 411.553C148.086 411.277 148.203 410.921 148.167 410.564C148.131 410.208 147.945 409.879 147.65 409.65C137.904 402.098 126.786 385.445 112.668 357.245C90.1105 312.174 82.2526 282.869 78.8976 270.362L77.9718 266.946C73.4737 250.925 64.1678 214.749 63.5375 187.745C62.513 187.241 61.5393 186.651 60.6284 185.982Z" fill="#6E98D0"/>
<path d="M60.1128 185.583C60.285 213.142 70.0151 251.073 74.6609 267.631L75.6046 271.096C78.9897 283.69 86.9144 313.175 109.54 358.393C123.844 386.969 135.204 403.912 145.29 411.731C145.585 411.96 145.964 412.07 146.346 412.037C146.727 412.004 147.078 411.83 147.323 411.555C147.567 411.279 147.683 410.923 147.647 410.566C147.611 410.209 147.426 409.88 147.131 409.652C137.386 402.1 126.271 385.446 112.151 357.246C89.6428 312.266 81.7661 282.957 78.4026 270.441L77.4515 266.944C72.9402 250.867 63.5939 214.498 63.019 187.48C61.9865 186.938 61.0131 186.303 60.1128 185.583Z" fill="#7BA0D4"/>
<path d="M56.8623 182.006C56.6167 186.858 56.7475 192.159 57.1549 197.697C60.9399 224.873 68.841 266.735 83.8746 309.964C89.0144 323.719 96.1554 340.66 106.185 360.689C116.84 381.992 125.867 396.836 133.961 406.259C136.036 407.819 139.058 409.736 143.024 411.361C133.438 403.52 122.534 387.003 108.796 359.543C86.286 314.59 78.3999 285.281 75.0308 272.766L74.073 269.247C69.3039 252.231 59.1269 212.5 59.6368 185.183C59.2852 184.875 58.9505 184.55 58.6339 184.211C58.6348 184.212 57.7438 182.981 56.8623 182.006Z" fill="#8AA9D8"/>
<path d="M59.0836 184.672C59.0432 212.292 68.9361 250.886 73.6299 267.631L74.5735 271.096C77.9587 283.69 85.8833 313.176 108.512 358.393C122.812 386.969 134.172 403.912 144.265 411.731C144.411 411.844 144.579 411.929 144.76 411.981C144.941 412.033 145.131 412.052 145.32 412.035C145.508 412.018 145.692 411.967 145.859 411.884C146.026 411.801 146.175 411.688 146.295 411.552C146.416 411.415 146.507 411.258 146.563 411.088C146.618 410.919 146.638 410.741 146.62 410.564C146.602 410.388 146.547 410.217 146.459 410.06C146.37 409.903 146.249 409.765 146.103 409.652C136.353 402.1 125.238 385.446 111.127 357.246C88.6127 312.266 80.736 282.957 77.3725 270.441L76.4204 266.944C71.879 250.747 62.4302 213.959 61.9776 186.889C60.9032 186.235 59.9275 185.501 59.0836 184.672Z" fill="#98B4DE"/>
<path d="M58.5614 184.111C58.3864 211.768 68.3827 250.771 73.1104 267.63L74.0362 271.039C77.4195 283.628 85.3375 313.107 107.991 358.391C122.201 386.769 133.505 403.681 143.54 411.569C143.943 411.729 144.354 411.884 144.775 412.036C145.151 412.009 145.515 411.844 145.775 411.553C146.019 411.276 146.135 410.921 146.1 410.564C146.064 410.207 145.879 409.878 145.585 409.649C135.838 402.09 124.721 385.437 110.602 357.244C88.066 312.196 80.1949 282.894 76.8333 270.382L75.9 266.946C71.3388 250.68 61.8326 213.657 61.4507 186.555C60.3932 185.865 59.4429 185.088 58.6338 184.212L58.5614 184.111Z" fill="#A7BDE2"/>
<path d="M58.058 183.446C57.7109 211.138 67.8295 250.637 72.5939 267.63L73.5357 271.089C76.9209 283.681 84.8455 313.164 107.484 358.391C121.433 386.258 132.582 403.069 142.481 411.135C143.159 411.423 143.866 411.704 144.6 411.973C144.85 411.896 145.08 411.755 145.259 411.553C145.503 411.276 145.62 410.921 145.584 410.564C145.549 410.207 145.364 409.878 145.069 409.649C135.322 402.09 124.209 385.444 110.098 357.244C87.5768 312.253 79.6973 282.942 76.3319 270.427L75.3845 266.942C70.8045 250.608 61.2362 213.336 60.937 186.205C60.0958 185.619 59.324 184.95 58.6348 184.21C58.6348 184.212 58.4024 183.891 58.058 183.446Z" fill="#B6C8E7"/>
<path d="M57.5528 182.812C57.0372 210.551 67.2782 250.515 72.0812 267.634L73.0249 271.096C76.41 283.685 84.3347 313.171 106.969 358.392C120.63 385.703 131.612 402.396 141.376 410.648C142.301 411.073 143.285 411.485 144.329 411.876C144.534 411.769 144.709 411.617 144.838 411.433C144.966 411.249 145.045 411.038 145.067 410.819C145.089 410.6 145.054 410.379 144.964 410.176C144.875 409.972 144.733 409.792 144.553 409.652C134.795 402.086 123.681 385.432 109.584 357.246C87.064 312.262 79.1855 282.953 75.822 270.434L74.8717 266.944C70.2682 250.541 60.6256 213.005 60.4177 185.826C59.7748 185.337 59.178 184.797 58.6338 184.212C58.6338 184.212 58.155 183.55 57.5528 182.812Z" fill="#C6D5ED"/>
<path d="M57.0476 182.215C56.8368 190.837 57.6901 200.677 59.1117 210.665C60.7266 220.596 62.5792 230.492 64.6683 240.346C66.7323 249.493 69.034 258.592 71.5712 267.634L72.4933 271.029C75.8709 283.619 83.7795 313.097 106.452 358.392C119.821 385.114 130.625 401.671 140.232 410.102C141.462 410.711 142.724 411.262 144.013 411.754C144.182 411.629 144.319 411.471 144.415 411.29C144.51 411.109 144.561 410.91 144.564 410.708C144.566 410.507 144.521 410.307 144.43 410.124C144.34 409.941 144.207 409.779 144.041 409.65C134.282 402.084 123.167 385.438 109.065 357.245C86.5098 312.187 78.6492 282.884 75.2932 270.369L74.3627 266.946C70.7348 254.027 60.1006 213.765 59.9171 185.426C59.4625 185.047 59.0344 184.642 58.6357 184.212C58.6347 184.212 57.8642 183.148 57.0476 182.215Z" fill="#D9E2F3"/>
<path d="M56.5537 181.675C56.4144 186.411 56.6026 191.528 57.0363 196.847C59.8635 217.38 65.0767 246.572 74.0212 278.478C78.3086 293.579 86.9455 320.447 105.944 358.391C118.994 384.481 129.599 400.878 139.026 409.48C140.523 410.281 142.071 410.995 143.662 411.618C143.682 411.597 143.702 411.575 143.721 411.553C143.965 411.277 144.082 410.921 144.046 410.564C144.01 410.207 143.824 409.878 143.529 409.65C133.777 402.098 122.663 385.445 108.557 357.244C86.0385 312.271 78.1581 282.962 74.7918 270.447L73.8387 266.943C69.191 250.354 59.4025 212.175 59.3884 184.961C59.1268 184.72 58.8754 184.47 58.6348 184.212C58.6348 184.212 57.5227 182.675 56.5537 181.675Z" fill="#EAEEF8"/>
<path d="M56.0466 181.195C55.9554 183.848 55.9704 186.624 56.0748 189.492C59.2455 215.251 66.8305 259.76 82.6139 306.296C87.7857 320.292 95.0621 337.692 105.419 358.391C118.117 383.76 128.497 399.967 137.728 408.754C139.501 409.787 141.355 410.693 143.273 411.464C143.48 411.185 143.568 410.844 143.519 410.508C143.47 410.172 143.288 409.866 143.009 409.649C133.258 402.09 122.145 385.444 108.034 357.244C85.5315 312.278 77.6454 282.965 74.2781 270.446L73.3223 266.942C68.6472 250.241 58.7703 211.676 58.8691 184.453C58.791 184.372 58.7111 184.293 58.6349 184.211C58.6349 184.212 57.0797 182.064 56.0466 181.195Z" fill="white"/>
<path d="M281.354 156.217C281.2 157.504 280.94 160.264 280.582 165.903C279.294 186.183 58.2086 192.281 57.3421 171.311C56.7268 156.437 72.8207 142.922 79.0585 141.861C87.7725 140.38 88.2542 150.962 89.6062 142.922C90.9441 134.868 99.4285 124.517 88.0642 122.895C82.7221 122.137 75.9001 118.451 72.18 115.599C74.693 116.071 78.9399 116.281 86.1364 116.336C123.74 121.491 253.483 115.879 253.483 115.879C246.839 123.162 257.362 133.456 265.097 141.563C272.844 149.68 279.294 149.68 280.582 155.088C280.947 156.612 281.2 156.587 281.354 156.217ZM162.856 139.468C153.284 138.551 130.686 137.732 117.329 134.511L117.621 136.695C117.621 136.695 123.421 138.83 128.927 140.037L129.386 143.779C138.832 145.36 156.633 146.546 159.684 146.699C162.721 146.847 172.423 140.381 162.856 139.468Z" fill="#93B0DC"/>
<path d="M5.83888 89.4718C5.85394 90.5697 5.87087 91.5708 5.88969 92.5297C6.3968 74.6136 8.40454 56.8403 12.6722 43.044C8.74889 52.5664 5.53405 66.8804 5.83888 89.4718ZM44.8347 13.9617C44.8347 13.9617 49.0788 12.1603 42.8119 11.2243C42.5183 11.1803 42.2267 11.0306 41.9454 10.8334C32.6047 12.3082 24.1504 16.9589 21.1726 21.7954C21.1726 21.7954 25.3951 19.6523 30.612 17.6826C35.3275 15.1865 40.3666 13.9617 44.8347 13.9617Z" fill="#FFFBCD"/>
<path d="M5.7711 98.5495C4.2206 83.2899 2.80558 58.7756 6.60844 38.4136C7.41286 34.0701 11.2421 25.275 17.0075 17.0637C10.1215 24.0934 3.51591 35.3557 2.34457 53.1246C2.11877 56.5576 2.05762 62.8936 2.05762 68.592C2.05762 74.8197 2.12912 80.291 2.131 80.3896C2.45183 94.5583 4.03714 111.02 6.75145 128.809C6.00324 118.738 5.67621 108.644 5.7711 98.5495Z" fill="#FFFBCD"/>
<path d="M259.407 48.8974L261.106 50.9296C260.704 48.4898 260.421 46.1222 260.29 43.8567C259.999 46.904 259.993 48.8983 259.993 48.8983L257.922 48.0804C257.922 48.0927 257.925 48.1041 257.925 48.1173L259.407 48.8974Z" fill="#CBD7EE"/>
<path d="M68.2351 111.764C68.1542 111.145 68.2576 110.554 68.4552 109.999C67.696 108.096 67.0957 106.093 66.8784 103.881C65.7108 92.0331 66.5905 91.7346 70.0641 90.5178C70.0641 90.5178 78.4723 55.0018 78.4723 50.1081C78.4723 48.6817 78.4723 47.147 78.4544 45.5516L76.155 46.16C76.155 52.2397 72.9665 65.6037 69.7799 73.1961C66.5914 80.7955 61.9446 92.3492 66.8793 108.744C67.2848 110.093 67.7948 111.331 68.3451 112.52C68.3028 112.269 68.2661 112.017 68.2351 111.764ZM86.8862 127.27C81.2892 124.626 75.361 120.799 71.4 115.43C70.4385 115.192 69.794 114.897 69.3509 114.536C75.9057 126.172 88.6305 129.404 88.6305 129.404L88.4894 127.27H86.8862Z" fill="#FFFBCD"/>
<path d="M69.3707 114.556C68.7045 114.028 68.4825 113.361 68.3442 112.522C67.7938 111.331 67.2839 110.094 66.8784 108.744C61.9437 92.3492 66.5905 80.7955 69.779 73.1961C72.9665 65.6046 76.1541 52.2397 76.1541 46.16L77.3395 45.8457C77.4449 43.9579 77.4882 42.1107 77.3885 40.3691C77.0187 37.438 76.0271 32.0318 73.5517 27.5299C73.3165 27.1874 73.1011 26.8247 72.8414 26.5042C71.4158 24.7278 69.7255 23.1518 67.822 21.8244L66.5905 23.3705C66.5905 23.3705 72.9656 28.8542 72.6721 35.5221C72.6721 35.5221 66.8784 21.8614 54.1112 21.2442C45.8272 20.855 42.331 21.4854 40.885 21.9776C40.2979 22.2558 39.9131 22.4698 39.9131 22.4698C39.9131 22.4698 40.1031 22.2444 40.885 21.9776C43.2098 20.8744 49.8502 18.3359 59.3338 20.0318L61.6605 18.8237L61.4366 18.6793C55.0662 16.59 48.3514 17.0681 43.4544 18.4346L35.3895 22.1977C35.3895 22.1977 27.3266 26.8687 20.5168 37.909C18.7659 40.7468 17.5136 44.5241 16.6095 48.5637C19.6625 40.4087 24.4326 33.99 30.8745 29.8729C39.2187 24.5407 49.6536 23.4762 58.7881 27.0237C64.0737 29.0849 67.7355 32.4324 69.6708 36.9748C73.9187 46.9366 68.6679 60.0866 66.2104 65.2779C53.16 92.8414 55.3767 103.422 59.0497 112.666C60.0517 115.192 62.8074 117.778 66.0006 120.773C70.9522 125.418 77.1166 131.205 78.8966 139.325C78.9568 139.606 78.8816 139.9 78.6896 140.123C78.6859 140.127 78.6793 140.125 78.6755 140.128C78.7809 140.701 78.8007 141.318 78.8675 141.912C78.9258 141.9 79.0001 141.872 79.0556 141.861C81.6476 141.42 83.4973 142.055 84.8728 142.94C85.061 142.762 85.2567 142.609 85.427 142.38C87.0537 140.187 88.3332 134.873 88.4762 129.364C87.1572 128.997 75.5491 125.498 69.3707 114.556Z" fill="#779DD2"/>
<path d="M267.423 96.2136C267.837 101.104 264.892 104.185 262.836 105.727C266.749 106.299 268.335 107.617 268.806 110.166C273.578 100.61 273.523 89.1707 268.686 76.8422C265.182 67.9282 262.443 59.016 261.106 50.9305L259.406 48.8983L257.923 48.1156C259.158 58.397 262.262 72.1334 264.553 82.2501C266.052 88.8616 267.235 94.0846 267.423 96.2136ZM265.122 115.101C263.687 115.265 262.443 114.676 261.53 113.755C260.629 113.533 258.76 113.449 256.232 113.453L251.418 120.738C251.331 122.564 251.855 124.478 252.816 126.434C258.432 123.164 262.797 119.248 265.988 114.831C265.698 114.925 265.438 115.066 265.122 115.101Z" fill="#9FB7DF"/>
<path d="M317.111 35.8293C310.152 24.899 302.032 20.3426 302.032 20.3426L293.913 16.6886C285.797 14.5657 272.746 14.8783 264.633 25.2055C256.514 35.522 260.568 56.1869 268.687 76.8413C273.524 89.1697 273.579 100.61 268.807 110.165C268.833 110.307 268.87 110.438 268.89 110.587C269.143 112.514 267.865 114.215 265.989 114.83C262.798 119.248 258.433 123.163 252.817 126.434C254.316 129.495 256.829 132.646 259.563 135.683C261.808 128.792 266.995 123.786 271.591 119.371C274.755 116.327 277.49 113.699 278.462 111.154C282.014 101.86 284.094 91.2512 270.676 63.8753C268.148 58.7315 262.716 45.6934 266.818 35.662C268.691 31.0791 272.315 27.6717 277.581 25.5339C286.674 21.8447 297.127 22.7551 305.543 27.9746C314.43 33.4837 320.322 43.2703 322.838 56.1429C321.97 48.9098 320.312 40.8648 317.111 35.8293Z" fill="#588CC9"/>
<path d="M279.709 90.8163C283.264 99.6633 281.147 109.912 273.04 117.551C270.133 120.301 267.815 119.682 267.815 119.682C267.815 119.682 275.646 111.479 276.513 104.186C277.379 96.903 277.967 91.1262 273.04 75.9326C273.04 75.9326 277.379 85.05 279.709 90.8163Z" fill="#CBD7EE"/>
<path d="M217.078 176.043C248.397 171.642 252.442 166.028 254.771 163.581C257.091 161.141 240.275 156.012 235.633 153.326C230.992 150.638 233.893 149.175 235.054 149.175C236.215 149.175 243.752 146.731 243.752 146.731C243.752 146.731 220.558 150.884 219.397 150.884C218.238 150.884 228.853 155.547 236.214 156.743C243.752 157.967 248.969 161.624 246.649 164.063C244.331 166.518 239.111 169.935 217.078 176.043Z" fill="#3B7FC2"/>
<path d="M205.475 177.755C235.916 175.918 249.259 173.351 262.598 170.421C275.938 167.491 272.166 163.093 262.311 159.673C252.441 156.257 239.691 148.925 243.751 146.731C243.751 146.731 236.213 149.175 235.053 149.175C233.893 149.175 230.992 150.638 235.632 153.326C240.274 156.012 257.09 161.141 254.77 163.581C252.44 166.028 248.396 171.642 217.077 176.043L205.475 177.755Z" fill="white"/>
<path d="M195.326 151.731C176.182 152.464 143.425 152.832 115.586 149.416C115.586 149.416 112.682 151.245 130.672 152.464C148.641 153.691 164.308 153.932 164.308 153.932C164.308 153.932 155.611 156.256 142.264 155.763C128.925 155.271 116.167 152.349 112.682 155.271C109.206 158.208 98.7671 164.561 106.894 166.759C115.007 168.955 148.641 175.054 158.497 173.836C168.359 172.616 170.687 170.178 168.359 165.537C166.038 160.895 167.787 154.175 167.787 154.175C167.787 154.175 189.529 154.175 195.326 153.196C201.127 152.228 195.326 151.731 195.326 151.731Z" fill="#E3E9F6"/>
<path d="M141.979 178.36C103.706 174.82 85.4355 171.393 84.855 166.518C84.2755 161.625 91.2348 160.405 90.0748 157.968C88.911 155.523 96.4499 150.395 99.9347 149.661C103.419 148.926 102.83 149.175 102.83 149.175L103.118 148.319L101.098 148.203C101.098 148.203 101.38 148.926 99.3514 149.293C97.3267 149.661 92.1079 150.154 90.3674 152.715C88.6306 155.272 85.7281 158.327 80.211 160.405C74.7072 162.478 55.8613 166.578 75.5774 170.973C95.2936 175.371 98.9186 174.88 130.38 177.995C134.691 178.43 141.979 178.36 141.979 178.36Z" fill="#2178BE"/>
<path d="M266.512 138.266C265.79 137.859 265.052 137.479 264.3 137.124L260.469 137.193C260.307 137.196 260.147 137.163 260.001 137.098C259.856 137.032 259.729 136.935 259.63 136.815C259.532 136.695 259.465 136.555 259.436 136.406C259.406 136.258 259.414 136.105 259.459 135.959C259.899 134.544 260.495 133.225 261.155 131.957C259.682 130.388 258.657 129.399 258.657 129.399L250.336 127.288C243.061 129.842 114.881 132.98 111.533 132.104C91.9386 126.956 88.5713 125.28 88.6296 129.407C88.6729 133.532 88.3069 141.566 106.374 137.515C109.641 136.783 113.476 136.44 117.578 136.387L117.327 134.514C130.683 137.734 153.282 138.554 162.854 139.471C169.638 140.117 166.736 143.546 163.388 145.441C163.927 145.79 164.364 146.134 164.685 146.469C169.853 151.88 207.025 146.979 219.931 144.273C232.841 141.567 231.543 141.567 240.577 141.567C224.877 141.567 260.977 150.467 259.518 143.029C260.107 144.058 260.864 145.241 262.521 146.979C267.681 152.385 268.969 157.787 271.547 151.03C272.787 147.79 269.876 142.699 266.512 138.266Z" fill="#3B7FC2"/>
<path d="M142.802 149.542C152.277 150.534 162.405 150.921 172.89 150.633C187.732 150.216 201.842 148.402 214.441 145.547L210.311 147.278C198.34 149.972 187.256 152.082 173.357 152.489C158.639 152.909 144.229 152.357 131.694 150.175L142.802 149.542Z" fill="#9FB7DF"/>
<path d="M102.233 367.071C102.137 366.836 102.143 366.576 102.249 366.346C102.355 366.115 102.553 365.932 102.8 365.836C102.994 365.759 103.19 365.797 103.382 365.833L87.3199 326.69C87.2032 326.831 87.0866 326.983 86.8899 327.05C86.6363 327.136 86.3568 327.125 86.1118 327.019C85.8669 326.914 85.6763 326.722 85.5812 326.486L81.021 315.394C48.4775 258.889 25.4345 179.438 16.6405 117.685L16.6575 117.868C18.3228 133.953 22.6976 156.982 22.6976 156.982C28.1169 193.355 56.0682 266.779 56.0682 266.779L36.8845 219.963L35.1553 220.904C35.1553 220.904 17.0432 167.695 11.6814 114.292C8.27368 80.3341 11.3944 60.1385 16.7026 48.1931C17.6011 44.296 18.8214 40.657 20.5187 37.9082C27.3275 26.8678 35.3914 22.1969 35.3914 22.1969L43.4562 18.4337C48.3533 17.0672 55.069 16.59 61.4384 18.6785C60.4035 18.0207 55.7182 15.1407 52.3763 14.8765C52.3763 14.8765 52.3763 11.1891 52.6717 11.2225C67.8756 13.0469 73.4266 18.9241 76.4476 31.574C77.6058 36.4395 77.6058 42.5122 77.6058 42.5122C77.6058 42.5122 77.555 41.6766 77.3894 40.3682C77.4891 42.1098 77.4468 43.9571 77.3405 45.8448L78.4459 45.5543C78.3726 39.7334 78.0404 33.1888 76.4476 27.9288C76.4476 27.9288 73.3871 16.0837 67.8766 11.8371C64.9534 9.57164 60.8937 7.25246 57.724 5.56898C55.9797 4.96409 54.1347 4.42523 52.0677 4.04046C50.1992 3.69355 48.009 3.58085 45.6239 3.7138C44.7625 3.93449 43.9184 4.21074 43.0978 4.54057C38.5037 6.41072 40.7843 10.9214 42.8108 11.2208C49.0777 12.1567 44.8336 13.9582 44.8336 13.9582C38.4632 13.9582 30.9187 16.3874 24.8362 21.5497C6.47762 37.1245 3.86398 90.1797 6.75235 128.809C16.0299 189.595 38.6307 266.04 70.1948 320.814C70.4112 321.198 90.2459 356.261 104.665 373C103.453 370.049 102.233 367.071 102.233 367.071Z" fill="#CBD7EE"/>
<path d="M108.095 374.629C88.4424 354.372 45.6918 272.682 33.7488 224.57L35.1986 224.248C39.4662 239.986 54.8263 282.596 71.1301 308.79L72.8377 307.253L85.5606 325.288C85.5606 325.288 90.0475 334.059 93.3489 342.83C96.6653 351.587 108.095 374.629 108.095 374.629Z" fill="#779DD2"/>
<path d="M334.374 50.7852C333.304 37.3191 329.15 27.6541 324.159 20.7379C327.888 26.9453 330.36 32.8295 331.03 36.1366C337.468 68.2178 331.03 110.873 331.03 110.873C332.19 102.372 332.477 99.327 332.477 87.1737C332.477 40.9934 318.271 29.4547 313.336 23.0773C308.413 16.6894 289.848 13.3559 289.848 13.3559C297.104 10.3165 316.241 19.7315 316.241 19.7315C310.439 10.6168 284.884 2.34113 271.293 15.4779C268.618 18.0674 266.595 21.3085 265.036 24.7414C273.173 14.8906 285.924 14.6001 293.913 16.6894L302.032 20.3434C302.032 20.3434 310.153 24.8999 317.111 35.8302C318.848 38.5597 320.117 42.1794 321.062 46.0685C326.529 57.9347 329.918 78.0819 326.962 112.087C322.332 165.559 304.929 219.022 304.929 219.022L303.192 218.118L284.635 265.199C284.635 265.199 311.599 191.382 316.527 154.924C316.527 154.924 320.586 131.84 322.042 115.733C322.633 109.16 323.029 100.673 323.291 92.918C318.413 156.785 295.035 250.005 259.233 314.145L254.107 327.14C253.982 327.46 253.684 327.623 253.353 327.69L238.104 366.335C238.247 366.505 238.341 366.705 238.341 366.92C238.341 367.03 238.322 367.143 238.281 367.256L236.356 372.127C250.547 355.177 269.899 319.839 270.108 319.452C270.112 319.452 270.112 319.445 270.118 319.445C309.976 248.007 334.378 140.612 334.943 78.0643C334.944 77.8617 334.936 57.9611 334.374 50.7852Z" fill="#CBD7EE"/>
<path d="M243.179 361.208C255.636 344.801 295.364 269.76 306.386 222.673L304.929 222.364C300.872 238.162 286.082 281.005 270.134 307.429L268.393 305.92L255.931 324.138C255.931 324.138 253.614 334.471 250.42 343.281C247.228 352.095 243.179 361.208 243.179 361.208Z" fill="#779DD2"/>
</g>
<defs>
<clipPath id="clip0_208_521">
<rect width="337" height="487" fill="white"/>
</clipPath>
</defs>
</svg>
